# xmcd
#
# Track frame offsets:
#	200
#	19927
#	48362
#	64205
#	82672
#	97650
#	118355
#	143262
#	156825
#	172722
#	188722
#	202167
#
# Disc length: 2884 seconds
#
# Revision: 1
# Processed by: cddbd v1.5.1PL0 Copyright (c) Steve Scherf et al.
# Submitted via: audiograbber 1.83.01
#
DISCID=910b420c
DTITLE=Tom DeMasters - On the Bright Side
DYEAR=1995
DGENRE=Blues
TTITLE0=Why oh Why
TTITLE1=Duke's Jig
TTITLE2=Woke up to Bad News
TTITLE3=Breeze
TTITLE4=Blues Strut
TTITLE5=Here with Me
TTITLE6=Illusions
TTITLE7=Rendezvous
TTITLE8=Philadelphia
TTITLE9=Blues for You
TTITLE10=On the Bright Side
TTITLE11=Midwestern
EXTD=
EXTT0=
EXTT1=
EXTT2=
EXTT3=
EXTT4=
EXTT5=
EXTT6=
EXTT7=
EXTT8=
EXTT9=
EXTT10=
EXTT11=
PLAYORDER=
